# xmcd
#
# Track frame offsets:
#	150
#	17008
#	29604
#	40554
#	60078
#	75181
#	86362
#	98170
#	116850
#	125991
#	136937
#	144812
#	162891
#	182122
#	198280
#	217843
#	235426
#	252218
#	273060
#	285780
#	302372
#	318857
#	325433
#	349519
#
# Disc length: 4792 seconds
#
# Revision: 0
# Processed by: cddbd v1.5.2PL0 Copyright (c) Steve Scherf et al.
# Submitted via: EasyCDDAExtractor 16.0.9.1
#
DISCID=3412b618
DTITLE=Барды Новое Поколение - Российские барды 20
DYEAR=2010
DGENRE=Ballad
TTITLE0="Мышеловка" - Дуэт для скрипки и альта
TTITLE1=Андрей Павлов - Карлсон
TTITLE2=Ксения Полтева - Карта мира
TTITLE3=Ксения Полтева - Мадагаскар
TTITLE4=Сергей Труханов - В пыли и скалах
TTITLE5=Павел Фахртдинов - Играй
TTITLE6=Никита Дорофеев - Солдатики войны
TTITLE7=Лев Степанов - Бизнес Джет
TTITLE8=Алина Михайловская - Венесуэла
TTITLE9=Алина Михайловская - Порто-франко
TTITLE10=Игорь Белый - Фата Моргана
TTITLE11=Елена Решетняк - Соломинка
TTITLE12=Зоя Ященко - Белая гвардия
TTITLE13=Зоя Ященко - Памяти Колчака
TTITLE14=Елена Фролова - Белый воробей
TTITLE15=Андрей Козловский - Вниз по Золотухе
TTITLE16=Александр Щербина - Кронштадт
TTITLE17=Екатерина Болдырева - Мария
TTITLE18=Григорий Данской - Комсомольский проспект
TTITLE19=Вячеслав Ковалев - Вероника
TTITLE20=Павел Аксенов - Титикака
TTITLE21=Алексей Макаревич - Я сижу на центральной площади
TTITLE22=Андрей Корф - Возвращение Александра Вертинского
TTITLE23=Александр Никифоров - <БОНУС> Что мне сутулиться возле моста...
EXTD=?inneeneea aa?au Eiiniiieuneay i?aaaa\n
EXTT0=
EXTT1=
EXTT2=
EXTT3=
EXTT4=
EXTT5=
EXTT6=
EXTT7=
EXTT8=
EXTT9=
EXTT10=
EXTT11=
EXTT12=
EXTT13=
EXTT14=
EXTT15=
EXTT16=
EXTT17=
EXTT18=
EXTT19=
EXTT20=
EXTT21=
EXTT22=
EXTT23=
PLAYORDER=
